<?xml version="1.0" encoding="utf-8"?>
<!-- Generator: Adobe Illustrator 18.1.0, SVG Export Plug-In . SVG Version: 6.00 Build 0)  -->
<svg version="1.1" id="Layer_1" xmlns="http://www.w3.org/2000/svg" xmlns:xlink="http://www.w3.org/1999/xlink" x="0px" y="0px"
	 viewBox="0 0 459.5 98.8" enable-background="new 0 0 459.5 98.8" xml:space="preserve">
<g>
	<g>
		<path fill="#FFFFFF" d="M20,71.2h24.5v5.6H13.2V25.2H20V71.2z"/>
		<path fill="#FFFFFF" d="M86.8,63.3H65.2l-4.9,13.5h-7l19.7-51.6h6l19.7,51.6h-7L86.8,63.3z M67.3,57.7h17.5L76,33.6L67.3,57.7z"/>
		<path fill="#FFFFFF" d="M150.8,76.8H144L118,37v39.8h-6.8V25.2h6.8l26.1,40v-40h6.8V76.8z"/>
		<path fill="#FFFFFF" d="M168.4,76.8V25.2h14.6c3.4,0,6.5,0.6,9.3,1.7c2.8,1.1,5.2,2.8,7.2,4.9c2,2.1,3.5,4.7,4.6,7.7
			c1.1,3,1.6,6.4,1.6,10.1v3c0,3.7-0.5,7.1-1.6,10.1c-1.1,3-2.7,5.5-4.7,7.6c-2,2.1-4.5,3.7-7.4,4.8c-2.9,1.1-6.1,1.7-9.7,1.7H168.4
			z M175.2,30.8v40.4h7.2c2.7,0,5.2-0.4,7.2-1.3c2.1-0.9,3.8-2.1,5.2-3.8c1.4-1.6,2.4-3.6,3.1-5.9c0.7-2.3,1-4.9,1-7.7v-3.2
			c0-3-0.4-5.6-1.1-7.9c-0.7-2.3-1.7-4.3-3.1-5.8c-1.4-1.6-3-2.8-5-3.6c-2-0.8-4.3-1.2-6.8-1.2H175.2z"/>
		<path fill="#FFFFFF" d="M250.6,52.9h-22.4v18.3h26v5.6h-32.8V25.2h32.4v5.6h-25.6v16.6h22.4V52.9z"/>
		<path fill="#FFFFFF" d="M287,55.9h-12.1v20.9h-6.8V25.2h17.1c5.8,0,10.3,1.3,13.4,4c3.1,2.6,4.7,6.5,4.7,11.6c0,3.2-0.9,6-2.6,8.4
			c-1.7,2.4-4.2,4.2-7.2,5.4l12.1,21.9v0.4h-7.3L287,55.9z M274.9,50.3h10.5c1.8,0,3.5-0.3,4.8-0.8c1.4-0.5,2.5-1.2,3.5-2.1
			c0.9-0.9,1.6-1.9,2.1-3s0.7-2.4,0.7-3.8c0-1.5-0.2-2.8-0.7-4.1c-0.4-1.2-1.1-2.3-2-3.1s-2.1-1.5-3.5-2s-3.1-0.7-5.1-0.7h-10.2
			V50.3z"/>
		<path fill="#FFFFFF" d="M347.9,38.6c0,2.6-0.7,4.9-2,6.9s-3.2,3.6-5.5,4.7c1.3,0.6,2.5,1.3,3.6,2.1c1.1,0.9,2,1.8,2.8,2.9
			c0.8,1.1,1.4,2.3,1.8,3.5c0.4,1.3,0.6,2.6,0.6,4.1c0,2.4-0.4,4.5-1.3,6.3c-0.8,1.8-2,3.3-3.5,4.6c-1.5,1.2-3.2,2.2-5.2,2.8
			c-2,0.6-4.2,1-6.5,1s-4.5-0.3-6.5-1c-2-0.6-3.7-1.6-5.2-2.8c-1.5-1.2-2.6-2.8-3.5-4.6c-0.8-1.8-1.3-3.9-1.3-6.3
			c0-1.4,0.2-2.8,0.6-4.1c0.4-1.3,1-2.5,1.7-3.5c0.7-1.1,1.6-2.1,2.7-2.9s2.3-1.6,3.6-2.1c-2.3-1.1-4.1-2.7-5.4-4.7
			c-1.3-2-2-4.3-2-6.8c0-2.2,0.4-4.2,1.1-6c0.8-1.8,1.8-3.2,3.2-4.4c1.3-1.2,3-2.1,4.8-2.8s3.9-1,6.1-1c2.2,0,4.2,0.3,6.1,1
			s3.5,1.6,4.8,2.8c1.4,1.2,2.4,2.7,3.2,4.4C347.5,34.4,347.9,36.4,347.9,38.6z M342.5,62.7c0-1.4-0.2-2.8-0.7-4
			c-0.5-1.2-1.2-2.2-2-3.1c-0.9-0.9-1.9-1.5-3.1-2c-1.2-0.5-2.6-0.7-4-0.7c-1.5,0-2.8,0.2-4,0.7c-1.2,0.5-2.2,1.1-3.1,2
			c-0.9,0.9-1.5,1.9-2,3.1c-0.5,1.2-0.7,2.5-0.7,4c0,1.5,0.2,2.8,0.7,4s1.1,2.1,2,3s1.9,1.4,3.1,1.9c1.2,0.4,2.6,0.6,4.1,0.6
			c1.5,0,2.9-0.2,4.1-0.6c1.2-0.4,2.3-1,3.1-1.9c0.9-0.8,1.5-1.8,2-3S342.5,64.2,342.5,62.7z M341.3,38.7c0-1.3-0.2-2.5-0.6-3.5
			c-0.4-1.1-1-2-1.8-2.8c-0.8-0.8-1.7-1.4-2.7-1.9c-1.1-0.4-2.2-0.7-3.5-0.7s-2.4,0.2-3.5,0.6c-1.1,0.4-2,1-2.7,1.8
			c-0.8,0.8-1.4,1.7-1.8,2.8c-0.4,1.1-0.6,2.3-0.6,3.7c0,1.3,0.2,2.5,0.6,3.6c0.4,1.1,1,2,1.8,2.8c0.8,0.8,1.7,1.4,2.7,1.8
			c1.1,0.4,2.2,0.6,3.5,0.6s2.5-0.2,3.5-0.6c1.1-0.4,2-1,2.7-1.8c0.8-0.8,1.3-1.7,1.8-2.8C341.1,41.3,341.3,40.1,341.3,38.7z"/>
	</g>
</g>
<g>
	<polygon fill="none" stroke="#FFFFFF" stroke-width="1.643" stroke-miterlimit="10" points="442.9,28.7 409.8,6.7 376.6,28.7 
		374.4,68.4 409.8,85.3 445.2,68.4 	"/>
	<polygon fill="none" stroke="#FFFFFF" stroke-width="1.643" stroke-miterlimit="10" points="434,34.8 409.8,76.8 385.5,34.8 	"/>
	<polyline fill="none" stroke="#FFFFFF" stroke-width="1.643" stroke-miterlimit="10" points="409.8,85.3 409.8,76.8 445.2,68.4 
		434,34.8 442.9,28.7 	"/>
	<polyline fill="none" stroke="#FFFFFF" stroke-width="1.643" stroke-miterlimit="10" points="409.8,76.8 374.4,68.4 385.5,34.8 
		376.6,28.7 	"/>
	<polyline fill="none" stroke="#FFFFFF" stroke-width="1.643" stroke-miterlimit="10" points="434,34.8 409.8,6.7 385.5,34.8 	"/>
</g>
</svg>
